<?xml version="1.0" encoding="utf-8"?>
<svg viewBox="7.643 180.826 411.018 71.783" xmlns="http://www.w3.org/2000/svg" xmlns:bx="https://boxy-svg.com">
  <defs>
    <path id="path-0" d="M 49.102 267.665 C 71.444 285.381 88.894 287.942 108.383 292.814 C 140.272 298.612 166.231 298.763 191.617 302.994 C 218.398 303.593 237.714 306.587 257.485 306.587 C 287.491 301.383 293.1 288.871 304.192 269.461 C 309.763 253.437 316.228 264.021 325.748 269.461 C 352.313 276.851 372.939 278.864 392.814 283.832 C 403.775 285.801 422.692 285.566 427.545 290.419 C 432.603 290.419 442.357 288.781 444.91 286.228 C 448.223 282.915 453.572 282.496 456.886 280.838 C 460.548 279.641 470.33 277.574 471.856 276.048 L 473.054 276.048 C 473.817 275.285 474.637 275.256 475.449 274.85" style="fill: none;"/>
    <path id="path-1" d="M 86.228 282.635 C 92.768 282.036 99.462 277.784 102.395 274.85 C 109.122 274.85 115.473 270.659 121.557 270.659 C 129.477 268.617 137.775 268.263 144.311 268.263 C 151.344 268.263 157.355 265.868 162.874 265.868 C 167.929 265.868 172.798 264.072 177.246 264.072 C 184.029 263.473 190.379 260.479 197.006 260.479 C 204.006 258.146 211.81 257.485 217.365 257.485 C 222.658 257.485 226.488 256.886 230.539 256.886 C 237.674 256.886 244.252 256.287 250.898 256.287 C 260.783 256.287 271.29 256.875 278.443 254.491 C 284.009 253.892 288.808 252.096 293.413 252.096 L 294.611 252.096 C 295.703 252.096 297.456 252.245 298.204 251.497" style="fill: none;"/>
    <path id="path-2" d="M 155.689 297.605 C 159.382 295.21 162.07 291.42 164.072 290.419 C 166.423 290.419 170.99 289.056 173.054 288.024 C 174.955 286.722 185.518 285.629 188.024 285.629 C 192.041 284.489 195.964 283.832 199.401 283.832 C 202.757 283.832 207.849 283.8 210.18 282.635 C 214.663 279.948 221.254 281.888 224.551 280.24 C 230.358 280.24 235.898 277.245 240.719 277.245 C 247.266 276.647 251.592 275.909 256.886 274.85 C 262.706 274.251 271.231 273.666 274.85 271.856 C 281.373 271.257 287.098 269.461 292.814 269.461 C 300.379 269.461 307.036 270.247 312.575 268.862 C 321.763 268.862 328.278 266.467 334.731 266.467 C 344.389 264.046 352.915 262.275 360.479 262.275 C 369.105 262.275 375.691 261.078 382.635 261.078 C 389.288 260.479 393.302 259.281 397.605 259.281 C 405.161 256.701 412.5 258.421 417.964 255.689 C 422.881 255.689 425.426 254.491 428.742 254.491 L 428.742 253.892 C 429.541 253.892 430.339 253.892 431.138 253.892" style="fill: none;"/>
    <style bx:fonts="Abril Fatface">@import url(https://fonts.googleapis.com/css2?family=Abril+Fatface%3Aital%2Cwght%400%2C400&amp;display=swap);</style>
  </defs>
  <text style="fill: rgb(245, 168, 1); font-family: &quot;Abril Fatface&quot;; font-size: 71.6px; font-weight: 700; letter-spacing: 4px; paint-order: fill; stroke-miterlimit: 6; stroke-width: 3.75545px; white-space: pre;" transform="matrix(0.712576, 0, 0, 0.688347, 23.297827, 65.50737)"><tspan x="-15.569" y="255.689" style="text-decoration: underline overline solid rgba(255, 255, 255, 0.9);"> DESCOBERTO </tspan></text>
</svg>